<svg id="Layer_5" enable-background="new 0 0 64 64" height="512" viewBox="0 0 64 64" width="512" xmlns="http://www.w3.org/2000/svg" xmlns:xlink="http://www.w3.org/1999/xlink"><linearGradient id="SVGID_1_" gradientUnits="userSpaceOnUse" x1="32" x2="32" y1="63" y2="1"><stop offset="0" stop-color="#9f2fff"/><stop offset="1" stop-color="#0bb1d3"/></linearGradient><path d="m45 22c-2.206 0-4-1.794-4-4h2c0 1.103.897 2 2 2s2-.897 2-2h2c0 2.206-1.794 4-4 4zm3-6c.552 0 1-.448 1-1s-.448-1-1-1-1 .448-1 1 .448 1 1 1zm-6 0c.552 0 1-.448 1-1s-.448-1-1-1-1 .448-1 1 .448 1 1 1zm21 19.773v20.227h-28v4c0 1.654-1.346 3-3 3h-28c-1.654 0-3-1.346-3-3v-22c0-1.654 1.346-3 3-3h1.695c-2.834-1.992-4.695-5.28-4.695-9 0-6.065 4.935-11 11-11s11 4.935 11 11c0 3.72-1.861 7.008-4.695 9h8.761c.322-2.937 2.422-5.37 5.36-6.048l7.753-1.789.596-2.383c-1.715-1.073-2.991-2.773-3.511-4.78h-.264c-2.206 0-4-1.794-4-4 0-.933.334-1.781.871-2.462-.306-.952-.871-2.93-.871-4.538 0-2.027 1.517-3.707 3.474-3.966l.508-.676c1.576-2.103 4.086-3.358 6.715-3.358.981 0 1.947.17 2.869.506l6.578 2.392c2.306.837 3.856 3.05 3.856 5.504 0 .479-.059.956-.176 1.421l-.72 2.685c.552.686.896 1.545.896 2.492 0 2.206-1.794 4-4 4h-.263c-.52 2.007-1.796 3.708-3.511 4.78l.596 2.383 7.753 1.789c3.194.737 5.425 3.542 5.425 6.821zm-27-3.584 3.092.515-1.364-2.923-1.728.399zm2.522 4.703 3.883 2.912-2.162-4.633zm6.217-3.739-.682 5.46.943 2.022.944-2.022-.682-5.46-.262.261zm2.856 6.651 3.883-2.912-1.721-1.721zm4.677-10.023-1.364 2.923 3.092-.515v-2.009zm-2.957-.682-2.262 2.262.481 3.845 2.746-5.884zm5.685-13.099c0-1.103-.897-2-2-2v4c1.103 0 2-.897 2-2zm-18 2v-3.395c0-.204.022-.404.037-.605h-.037c-1.103 0-2 .897-2 2s.897 2 2 2zm3.445-9.832.555-.369.555.369c.057.038 5.812 3.832 10.445 3.832h1c.483 0 .941.099 1.37.257l.519-1.936c.072-.29.111-.604.111-.919 0-1.616-1.021-3.073-2.539-3.626l-6.578-2.392c-.702-.254-1.438-.384-2.186-.384-2.002 0-3.915.956-5.116 2.558l-1.081 1.442h-.5c-1.103 0-2 .897-2 2 0 1.045.313 2.352.578 3.273.443-.17.919-.273 1.422-.273h.46c.552-1.543 1.58-2.895 2.985-3.832zm4.555 15.832c3.309 0 6-2.691 6-6v-4.046c-4.079-.362-8.391-2.786-9.953-3.741-1.292 1.083-2.047 2.683-2.047 4.392v3.395c0 3.309 2.691 6 6 6zm-2.38 1.638-.513 2.055 2.893 2.893 2.893-2.893-.513-2.055c-.752.235-1.552.362-2.38.362s-1.628-.127-2.38-.362zm-2.899 3.684 2.746 5.884.481-3.845-2.262-2.262zm-27.721 5.678c4.963 0 9-4.037 9-9s-4.037-9-9-9-9 4.037-9 9 4.037 9 9 9zm-9 3v5h30v-5c0-.552-.448-1-1-1h-28c-.552 0-1 .448-1 1zm30 22v-15h-30v15c0 .552.448 1 1 1h28c.552 0 1-.448 1-1zm2-22v16h9v-10.5l-8.522-6.391 2.554-2.554-4.032-.672v-3.241l-1.125.26c-2.025.467-3.502 2.1-3.809 4.099h2.934c1.654-.001 3 1.345 3 2.999zm26-2.227c0-2.343-1.594-4.346-3.875-4.872l-1.125-.259v3.241l-4.031.672 2.554 2.554-8.523 6.391v10.5h9v-14h2v14h4zm-13 16.227h2v-2h-2zm0-4h2v-2h-2zm-37-9h-2v2h2zm4 0h-2v2h2zm-8 0h-2v2h2zm12 12h-2v6h-2v-4h-2v4h-2v-10h-2v10h-2v-10h-2v12h16v-2h-2zm4-2h8v-2h-8zm0 4h8v-2h-8zm0 4h8v-2h-8zm-10-34c.552 0 1 .448 1 1h2c0-1.654-1.346-3-3-3v-2h-2v2h-3v3c0 1.654 1.346 3 3 3h2c.552 0 1 .448 1 1v1h-3c-.552 0-1-.448-1-1h-2c0 1.654 1.346 3 3 3v2h2v-2h3v-3c0-1.654-1.346-3-3-3h-2c-.552 0-1-.448-1-1v-1z" fill="url(#SVGID_1_)"/></svg>