<svg id="Layer_5" enable-background="new 0 0 64 64" height="512" viewBox="0 0 64 64" width="512" xmlns="http://www.w3.org/2000/svg" xmlns:xlink="http://www.w3.org/1999/xlink"><linearGradient id="SVGID_1_" gradientUnits="userSpaceOnUse" x1="32" x2="32" y1="63" y2="1"><stop offset="0" stop-color="#9f2fff"/><stop offset="1" stop-color="#0bb1d3"/></linearGradient><path d="m55 49h4v2h-4zm0-16h4v-2h-4zm-4-24h12v10h-12v-4h-1c-.551 0-1 .449-1 1v10c0 1.654-1.346 3-3 3h-1v2h6v-4h12v10h-12v-4h-6v2h1c1.654 0 3 1.346 3 3v10c0 .552.449 1 1 1h1v-4h12v10h-12v-4h-1c-1.654 0-3-1.346-3-3v-10c0-.552-.449-1-1-1h-1v5h-18v-9h-4v7c0 .771-.301 1.468-.78 2 .48.532.78 1.229.78 2v16c0 1.654-1.346 3-3 3h-16c-1.654 0-3-1.346-3-3v-16c0-.771.301-1.468.78-2-.479-.532-.78-1.229-.78-2v-16c0-.771.301-1.468.78-2-.479-.532-.78-1.229-.78-2v-16c0-1.654 1.346-3 3-3h16c1.654 0 3 1.346 3 3v16c0 .771-.301 1.468-.78 2 .48.532.78 1.229.78 2v7h4v-9h18v5h1c.551 0 1-.449 1-1v-10c0-1.654 1.346-3 3-3h1zm-31 14h-16c-.551 0-1 .449-1 1v16c0 .552.449 1 1 1h16c.551 0 1-.448 1-1v-16c0-.551-.449-1-1-1zm-17-3c0 .551.449 1 1 1h16c.551 0 1-.449 1-1v-16c0-.551-.449-1-1-1h-16c-.551 0-1 .449-1 1zm18 24c0-.552-.449-1-1-1h-16c-.551 0-1 .448-1 1v16c0 .552.449 1 1 1h16c.551 0 1-.448 1-1zm32 9h8v-6h-8zm0-18h8v-6h-8zm-10-11h-14v16h14zm10-7h8v-6h-8zm2-2h4v-2h-4zm-14 11h-10v2h10zm0 12h-10v-8h10zm-2-6h-6v4h6zm-34-20c0-3.86 3.14-7 7-7s7 3.14 7 7-3.14 7-7 7-7-3.14-7-7zm2 0c0 2.757 2.243 5 5 5s5-2.243 5-5-2.243-5-5-5-5 2.243-5 5zm-2 20c0-1.654 1.346-3 3-3s3 1.346 3 3-1.346 3-3 3-3-1.346-3-3zm2 0c0 .551.449 1 1 1s1-.449 1-1-.449-1-1-1-1 .449-1 1zm6 0c0-1.654 1.346-3 3-3s3 1.346 3 3-1.346 3-3 3-3-1.346-3-3zm2 0c0 .551.449 1 1 1s1-.449 1-1-.449-1-1-1-1 .449-1 1zm-4 23c0 1.654-1.346 3-3 3s-3-1.346-3-3 1.346-3 3-3 3 1.346 3 3zm-2 0c0-.552-.449-1-1-1s-1 .448-1 1 .449 1 1 1 1-.448 1-1zm10 0c0 1.654-1.346 3-3 3s-3-1.346-3-3 1.346-3 3-3 3 1.346 3 3zm-2 0c0-.552-.449-1-1-1s-1 .448-1 1 .449 1 1 1 1-.448 1-1zm-5-4c-1.654 0-3-1.346-3-3s1.346-3 3-3 3 1.346 3 3-1.346 3-3 3zm1-3c0-.552-.449-1-1-1s-1 .448-1 1 .449 1 1 1 1-.448 1-1z" fill="url(#SVGID_1_)"/></svg>